HIERARCHY
ROOT hip
{
	OFFSET 0.000000 0.000000 0.000000
	CHANNELS 6 Xposition Yposition Zposition Zrotation Yrotation Xrotation 
	JOINT lhipjoint
	{
		OFFSET 0.000000 0.000000 0.000000
		CHANNELS 3 Zrotation Yrotation Xrotation
		JOINT lfemur
		{
			OFFSET 1.363060 -1.794630 0.839290
			CHANNELS 3 Zrotation Yrotation Xrotation
			JOINT ltibia
			{
				OFFSET 2.448110 -6.726130 0.000000
				CHANNELS 3 Zrotation Yrotation Xrotation
				JOINT lfoot
				{
					OFFSET 2.562200 -7.039590 0.000000
					CHANNELS 3 Zrotation Yrotation Xrotation
					JOINT ltoes
					{
						OFFSET 0.157640 -0.433110 2.322550
						CHANNELS 3 Zrotation Yrotation Xrotation
						End Site
						{
							OFFSET 0.000000 0.000000 0.000000
						}
					}
				}
			}
		}
	}
	JOINT rhipjoint
	{
		OFFSET 0.000000 0.000000 0.000000
		CHANNELS 3 Zrotation Yrotation Xrotation
		JOINT rfemur
		{
			OFFSET -1.305520 -1.794630 0.839290
			CHANNELS 3 Zrotation Yrotation Xrotation
			JOINT rtibia
			{
				OFFSET -2.542530 -6.985550 0.000000
				CHANNELS 3 Zrotation Yrotation Xrotation
				JOINT rfoot
				{
					OFFSET -2.568260 -7.056230 0.000000
					CHANNELS 3 Zrotation Yrotation Xrotation
					JOINT rtoes
					{
						OFFSET -0.164730 -0.452590 2.363150
						CHANNELS 3 Zrotation Yrotation Xrotation
						End Site
						{
							OFFSET 0.000000 0.000000 0.000000
						}
					}
				}
			}
		}
	}
	JOINT lowerback
	{
		OFFSET 0.000000 0.000000 0.000000
		CHANNELS 3 Zrotation Yrotation Xrotation
		JOINT upperback
		{
			OFFSET 0.028270 2.035590 -0.193380
			CHANNELS 3 Zrotation Yrotation Xrotation
			JOINT thorax
			{
				OFFSET 0.056720 2.048850 -0.042750
				CHANNELS 3 Zrotation Yrotation Xrotation
				JOINT lowerneck
				{
					OFFSET 0.000000 0.000000 0.000000
					CHANNELS 3 Zrotation Yrotation Xrotation
					JOINT upperneck
					{
						OFFSET -0.054170 1.746240 0.172020
						CHANNELS 3 Zrotation Yrotation Xrotation
						JOINT head
						{
							OFFSET 0.104070 1.761360 -0.123970
							CHANNELS 3 Zrotation Yrotation Xrotation
							End Site
							{
								OFFSET 0.000000 0.000000 0.000000
							}
						}
					}
				}
				JOINT lclavicle
				{
					OFFSET 0.000000 0.000000 0.000000
					CHANNELS 3 Zrotation Yrotation Xrotation
					JOINT lhumerus
					{
						OFFSET 3.362410 1.200890 -0.311210
						CHANNELS 3 Zrotation Yrotation Xrotation
						JOINT lradius
						{
							OFFSET 4.983000 -0.000000 -0.000000
							CHANNELS 3 Zrotation Yrotation Xrotation
							JOINT lwrist
							{
								OFFSET 3.483560 -0.000000 -0.000000
								CHANNELS 3 Zrotation Yrotation Xrotation
								JOINT lhand
								{
									OFFSET 0.000000 0.000000 0.000000
									CHANNELS 3 Zrotation Yrotation Xrotation
									JOINT lfingers
									{
										OFFSET 0.715260 -0.000000 -0.000000
										CHANNELS 3 Zrotation Yrotation Xrotation
										End Site
										{
											OFFSET 0.000000 0.000000 0.000000
										}
									}
								}
								JOINT lthumb
								{
									OFFSET 0.000000 0.000000 0.000000
									CHANNELS 3 Zrotation Yrotation Xrotation
									End Site
									{
										OFFSET 0.000000 0.000000 0.000000
									}
								}
							}
						}
					}
				}
				JOINT rclavicle
				{
					OFFSET 0.000000 0.000000 0.000000
					CHANNELS 3 Zrotation Yrotation Xrotation
					JOINT rhumerus
					{
						OFFSET -3.136600 1.374050 -0.404650
						CHANNELS 3 Zrotation Yrotation Xrotation
						JOINT rradius
						{
							OFFSET -5.241900 -0.000000 -0.000000
							CHANNELS 3 Zrotation Yrotation Xrotation
							JOINT rwrist
							{
								OFFSET -3.444170 -0.000000 -0.000000
								CHANNELS 3 Zrotation Yrotation Xrotation
								JOINT rhand
								{
									OFFSET 0.000000 0.000000 0.000000
									CHANNELS 3 Zrotation Yrotation Xrotation
									JOINT rfingers
									{
										OFFSET -0.622530 -0.000000 -0.000000
										CHANNELS 3 Zrotation Yrotation Xrotation
										End Site
										{
											OFFSET 0.000000 0.000000 0.000000
										}
									}
								}
								JOINT rthumb
								{
									OFFSET 0.000000 0.000000 0.000000
									CHANNELS 3 Zrotation Yrotation Xrotation
									End Site
									{
										OFFSET 0.000000 0.000000 0.000000
									}
								}
							}
						}
					}
				}
			}
		}
	}
}
MOTION
Frames: 7
Frame Time: 0.008333
-0.595336 15.671071 3.626572 177.221800 -3.416417 -177.608090 -4.780650 -2.236703 -1.900301 -13.690464 0.507041 -20.186734 9.175352 17.715556 55.624007 2.362243 -6.462343 -28.466292 1.655500 -8.108200 -23.043300 5.331000 0.698080 -0.146681 -1.030871 22.712255 -37.823659 -11.980206 -15.143487 62.393712 -1.131043 13.091325 -12.094423 -1.416300 7.526700 -21.285300 -4.450967 3.910250 17.323684 0.887834 2.124042 -1.038326 -1.727827 -0.874794 13.029879 -3.925951 3.194169 -15.463275 -0.310374 5.021670 4.782256 -1.968800 2.209300 0.993200 -6.378791 -3.234501 3.442321 -56.461712 -9.037719 56.121697 42.208182 -50.253061 -19.149103 -0.024790 1.664326 8.829837 48.812689 -17.293369 -21.274200 -7.125000 0.000000 0.000000 12.747400 1.917800 -12.633500 7.369157 3.131180 4.302540 75.957290 -3.048812 22.545309 -24.570632 43.109938 -7.605754 -0.619959 -2.211823 -0.944290 -15.079355 18.384846 -5.211900 7.125000 0.000000 0.000000 8.990700 -8.844400 7.598200 
-0.599188 15.696690 3.635171 177.337906 -3.497489 -177.506731 -4.779698 -2.240968 -1.896101 -13.587663 0.447369 -20.161056 9.069597 17.638859 55.246154 2.342610 -6.592383 -28.309475 1.650700 -8.097100 -23.009300 5.315895 0.694796 -0.144201 -0.913187 22.654431 -37.752014 -11.900677 -15.107815 62.080003 -1.121356 13.418390 -11.966358 -1.413500 7.519300 -21.263300 -4.277562 3.862793 17.237286 0.892386 2.120865 -1.074896 -1.794167 -0.829186 12.922988 -3.719707 3.279133 -15.375623 -0.332327 5.119352 4.779807 -2.033200 2.258600 0.992200 -6.325543 -3.240755 3.450246 -57.168774 -8.544029 56.518306 42.112359 -50.214847 -19.033069 -0.026428 1.682150 9.062526 48.391241 -16.830518 -20.565300 -7.125000 0.000000 0.000000 12.623400 2.691300 -12.323700 7.370495 3.175087 4.287318 75.989922 -3.400636 22.550396 -24.666417 43.197768 -7.645250 -0.627425 -2.208772 -0.710336 -15.101570 18.460244 -5.238800 7.125000 0.000000 0.000000 8.978500 -8.765600 7.601800 
-0.601338 15.724280 3.643233 177.442047 -3.572452 -177.384305 -4.778570 -2.245369 -1.891426 -13.490807 0.384743 -20.143823 8.955062 17.552768 54.832777 2.317706 -6.734149 -28.114200 1.634500 -8.059100 -22.893800 5.308536 0.687290 -0.134474 -0.819340 22.557326 -37.723658 -11.820865 -15.068543 61.765549 -1.104696 13.906766 -11.749978 -1.417300 7.529000 -21.292300 -4.087493 3.835107 17.138620 0.886747 2.150669 -1.121272 -1.912081 -0.754819 12.776590 -3.453322 3.350017 -15.288709 -0.342629 5.201238 4.838278 -2.105200 2.304600 1.018500 -6.268427 -3.250667 3.453235 -57.808736 -8.067335 56.942357 42.096084 -50.229153 -18.982063 -0.029344 1.694248 9.161048 48.336378 -16.687440 -20.411400 -7.125000 0.000000 0.000000 12.628300 2.882100 -12.283800 7.365706 3.235796 4.268616 76.114945 -3.831086 22.426595 -24.804638 43.318595 -7.703260 -0.631452 -2.212284 -0.433306 -15.107463 18.475775 -5.248800 7.125000 0.000000 0.000000 8.971300 -8.742000 7.599800 
-0.602861 15.753572 3.650220 177.486986 -3.633840 -177.306647 -4.775014 -2.252672 -1.888098 -13.467345 0.345895 -20.038833 8.824251 17.461239 54.361242 2.290301 -6.882949 -27.902804 1.615200 -8.013900 -22.756400 5.303747 0.689024 -0.124625 -0.770267 22.398055 -37.657090 -11.740351 -15.036042 61.457345 -1.083971 14.490458 -11.532514 -1.440100 7.586800 -21.466000 -3.971089 3.813005 17.082280 0.883077 2.176923 -1.165187 -1.969960 -0.698261 12.629870 -3.274701 3.419777 -15.334659 -0.271313 5.315371 5.085128 -2.118700 2.377800 1.145600 -6.216734 -3.261554 3.450738 -58.483858 -7.580894 57.294739 42.150370 -50.287782 -18.986868 -0.032266 1.706443 9.139008 48.426070 -16.731582 -20.535000 -7.125000 0.000000 0.000000 12.667400 2.758400 -12.353100 7.363482 3.304623 4.245207 76.192208 -4.324152 22.302339 -25.004194 43.479141 -7.786839 -0.634803 -2.213605 -0.154858 -15.086073 18.491265 -5.248000 7.125000 0.000000 0.000000 8.981000 -8.724400 7.611500 
-0.602861 15.784746 3.655416 177.435017 -3.701386 -177.277728 -4.764960 -2.265987 -1.888520 -13.567693 0.315351 -19.825573 8.676633 17.359950 53.823718 2.259832 -6.963745 -27.688259 1.605400 -7.990700 -22.685700 5.307350 0.700257 -0.113494 -0.809601 22.153923 -37.528626 -11.655841 -15.016006 61.154739 -1.050982 15.091346 -11.256870 -1.430600 7.562900 -21.394200 -3.920284 3.819341 17.088151 0.862563 2.217669 -1.208600 -2.088039 -0.635652 12.447362 -3.015463 3.481223 -15.307911 -0.205752 5.403050 5.314226 -2.155200 2.439600 1.253400 -6.167431 -3.281040 3.449404 -59.044603 -7.067317 57.685560 42.254353 -50.373249 -19.028712 -0.036553 1.714727 9.064904 48.591380 -16.831601 -20.759800 -7.125000 0.000000 0.000000 12.736600 2.532800 -12.477600 7.354525 3.383698 4.222000 76.404985 -4.889760 22.055298 -25.256254 43.685878 -7.893993 -0.638273 -2.222551 0.148229 -15.060138 18.505855 -5.247700 7.125000 0.000000 0.000000 8.993200 -8.700000 7.626400 
-0.601786 15.819054 3.658103 177.351762 -3.774249 -177.221004 -4.755709 -2.277768 -1.890185 -13.706559 0.242330 -19.582033 8.515173 17.245840 53.228537 2.227137 -7.037875 -27.460341 1.579100 -7.928100 -22.495800 5.316057 0.712583 -0.099493 -0.887433 21.870872 -37.421792 -11.570912 -14.994863 60.855423 -1.012114 15.662703 -10.965541 -1.425200 7.549100 -21.352600 -3.912317 3.824662 17.042111 0.842781 2.260164 -1.250158 -2.175477 -0.579213 12.292170 -2.786453 3.558798 -15.270413 -0.129142 5.509910 5.532325 -2.182000 2.511400 1.351300 -6.122495 -3.301105 3.447951 -59.581455 -6.558334 58.076775 42.472248 -50.510517 -19.137609 -0.040102 1.727411 8.794440 48.430157 -16.873907 -20.703900 -7.125000 0.000000 0.000000 12.627600 2.525700 -12.366900 7.349846 3.454590 4.200486 76.596519 -5.443428 21.815301 -25.515458 43.895807 -8.007106 -0.641786 -2.231551 0.449685 -15.073542 18.523222 -5.263000 7.125000 0.000000 0.000000 8.980400 -8.667700 7.621200 
-0.599457 15.856229 3.658103 177.277775 -3.863915 -177.109500 -4.752311 -2.284566 -1.888864 -13.824956 0.133231 -19.356968 8.341577 17.118768 52.582973 2.187732 -7.107604 -27.188422 1.552300 -7.863500 -22.300400 5.325344 0.722197 -0.080686 -0.961070 21.567064 -37.367418 -11.487736 -14.966732 60.557372 -0.969516 16.214507 -10.660714 -1.426700 7.552900 -21.364100 -3.936280 3.768912 16.896826 0.838461 2.243683 -1.300629 -2.170233 -0.557305 12.144466 -2.660288 3.676748 -15.169946 -0.091814 5.679535 5.725807 -2.202200 2.613300 1.422600 -6.079976 -3.323567 3.449697 -60.202851 -5.962857 58.355896 42.663109 -50.636658 -19.231180 -0.042448 1.743584 8.577489 48.161168 -16.846732 -20.511900 -7.125000 0.000000 0.000000 12.473500 2.653100 -12.178800 7.356756 3.516576 4.180581 76.622036 -6.007631 21.771769 -25.768401 44.090886 -8.115928 -0.642076 -2.236410 0.586030 -15.094411 18.511823 -5.271600 7.125000 0.000000 0.000000 8.963700 -8.669600 7.606300 
